<svg width="25" height="23" viewBox="0 0 25 23" fill="none" xmlns="http://www.w3.org/2000/svg">
<path d="M17.1875 2.17078C17.1875 1.75031 17.3521 1.34706 17.6451 1.04974C17.9382 0.75242 18.3356 0.585388 18.75 0.585388H21.875C22.2894 0.585388 22.6868 0.75242 22.9799 1.04974C23.2729 1.34706 23.4375 1.75031 23.4375 2.17078V21.1954H24.2188C24.426 21.1954 24.6247 21.2789 24.7712 21.4276C24.9177 21.5763 25 21.7779 25 21.9881C25 22.1984 24.9177 22.4 24.7712 22.5486C24.6247 22.6973 24.426 22.7808 24.2188 22.7808H0.78125C0.57405 22.7808 0.375336 22.6973 0.228823 22.5486C0.08231 22.4 0 22.1984 0 21.9881C0 21.7779 0.08231 21.5763 0.228823 21.4276C0.375336 21.2789 0.57405 21.1954 0.78125 21.1954H1.5625V16.4393C1.5625 16.0188 1.72712 15.6155 2.02015 15.3182C2.31317 15.0209 2.7106 14.8539 3.125 14.8539H6.25C6.6644 14.8539 7.06183 15.0209 7.35485 15.3182C7.64788 15.6155 7.8125 16.0188 7.8125 16.4393V21.1954H9.375V10.0977C9.375 9.67725 9.53962 9.274 9.83265 8.97668C10.1257 8.67936 10.5231 8.51233 10.9375 8.51233H14.0625C14.4769 8.51233 14.8743 8.67936 15.1674 8.97668C15.4604 9.274 15.625 9.67725 15.625 10.0977V21.1954H17.1875V2.17078ZM18.75 21.1954H21.875V2.17078H18.75V21.1954ZM14.0625 21.1954V10.0977H10.9375V21.1954H14.0625ZM6.25 21.1954V16.4393H3.125V21.1954H6.25Z" fill="#A5AAB5"/>
</svg>
