<svg width="23" height="23" viewBox="0 0 23 23" fill="none" xmlns="http://www.w3.org/2000/svg">
<path d="M0.5625 3.10898C0.5625 2.47827 0.80943 1.8734 1.24897 1.42742C1.68851 0.981443 2.28465 0.730896 2.90625 0.730896H7.59375C8.21535 0.730896 8.81149 0.981443 9.25103 1.42742C9.69057 1.8734 9.9375 2.47827 9.9375 3.10898V7.86514C9.9375 8.49585 9.69057 9.10072 9.25103 9.5467C8.81149 9.99268 8.21535 10.2432 7.59375 10.2432H2.90625C2.28465 10.2432 1.68851 9.99268 1.24897 9.5467C0.80943 9.10072 0.5625 8.49585 0.5625 7.86514V3.10898ZM13.0625 3.10898C13.0625 2.47827 13.3094 1.8734 13.749 1.42742C14.1885 0.981443 14.7846 0.730896 15.4062 0.730896H20.0938C20.7154 0.730896 21.3115 0.981443 21.751 1.42742C22.1906 1.8734 22.4375 2.47827 22.4375 3.10898V7.86514C22.4375 8.49585 22.1906 9.10072 21.751 9.5467C21.3115 9.99268 20.7154 10.2432 20.0938 10.2432H15.4062C14.7846 10.2432 14.1885 9.99268 13.749 9.5467C13.3094 9.10072 13.0625 8.49585 13.0625 7.86514V3.10898ZM0.5625 15.7921C0.5625 15.1614 0.80943 14.5565 1.24897 14.1105C1.68851 13.6645 2.28465 13.414 2.90625 13.414H7.59375C8.21535 13.414 8.81149 13.6645 9.25103 14.1105C9.69057 14.5565 9.9375 15.1614 9.9375 15.7921V20.5482C9.9375 21.179 9.69057 21.7838 9.25103 22.2298C8.81149 22.6758 8.21535 22.9263 7.59375 22.9263H2.90625C2.28465 22.9263 1.68851 22.6758 1.24897 22.2298C0.80943 21.7838 0.5625 21.179 0.5625 20.5482V15.7921ZM13.0625 15.7921C13.0625 15.1614 13.3094 14.5565 13.749 14.1105C14.1885 13.6645 14.7846 13.414 15.4062 13.414H20.0938C20.7154 13.414 21.3115 13.6645 21.751 14.1105C22.1906 14.5565 22.4375 15.1614 22.4375 15.7921V20.5482C22.4375 21.179 22.1906 21.7838 21.751 22.2298C21.3115 22.6758 20.7154 22.9263 20.0938 22.9263H15.4062C14.7846 22.9263 14.1885 22.6758 13.749 22.2298C13.3094 21.7838 13.0625 21.179 13.0625 20.5482V15.7921Z" fill="white"/>
</svg>
