<svg width="25" height="23" viewBox="0 0 25 23" fill="none" xmlns="http://www.w3.org/2000/svg">
<path d="M0 2.17078C0 1.75031 0.16462 1.34706 0.457646 1.04974C0.750671 0.75242 1.1481 0.585388 1.5625 0.585388H23.4375C23.8519 0.585388 24.2493 0.75242 24.5424 1.04974C24.8354 1.34706 25 1.75031 25 2.17078V5.34155C25 5.76202 24.8354 6.16527 24.5424 6.46259C24.2493 6.75991 23.8519 6.92694 23.4375 6.92694V18.8174C23.4375 19.8685 23.0259 20.8767 22.2934 21.6199C21.5608 22.3632 20.5673 22.7808 19.5312 22.7808H5.46875C4.43275 22.7808 3.43918 22.3632 2.70661 21.6199C1.97405 20.8767 1.5625 19.8685 1.5625 18.8174V6.92694C1.1481 6.92694 0.750671 6.75991 0.457646 6.46259C0.16462 6.16527 0 5.76202 0 5.34155V2.17078ZM3.125 6.92694V18.8174C3.125 19.4481 3.37193 20.0529 3.81147 20.4989C4.25101 20.9449 4.84715 21.1954 5.46875 21.1954H19.5312C20.1529 21.1954 20.749 20.9449 21.1885 20.4989C21.6281 20.0529 21.875 19.4481 21.875 18.8174V6.92694H3.125ZM23.4375 2.17078H1.5625V5.34155H23.4375V2.17078ZM7.8125 10.8904C7.8125 10.6802 7.89481 10.4786 8.04132 10.3299C8.18784 10.1812 8.38655 10.0977 8.59375 10.0977H16.4062C16.6135 10.0977 16.8122 10.1812 16.9587 10.3299C17.1052 10.4786 17.1875 10.6802 17.1875 10.8904C17.1875 11.1006 17.1052 11.3023 16.9587 11.4509C16.8122 11.5996 16.6135 11.6831 16.4062 11.6831H8.59375C8.38655 11.6831 8.18784 11.5996 8.04132 11.4509C7.89481 11.3023 7.8125 11.1006 7.8125 10.8904Z" fill="#A5AAB5"/>
</svg>
